<svg xmlns="http://www.w3.org/2000/svg" viewBox="0 0 900 900"><path d="M874.6 431.1c-9.6 0-14.9 5.1-14.9 11.3 0 6.8 5.3 9.9 16.9 14 15.5 5.5 23.4 12.6 23.4 24.9 0 14.5-12.2 24.9-33.3 24.9-8.7.1-17.3-1.9-25-5.8l.1-.3 4.7-10.8c6.3 3.5 13.4 5.4 20.6 5.6 11.8 0 17.3-5.5 17.3-12.3 0-7.2-4.6-11.1-16.6-15.2-16-5.3-23.6-13.5-23.6-23.4 0-13.3 12.5-24.8 31.6-24.8 7.4.1 14.6 2 21 5.7l-4.6 10.6c-5.4-2.9-11.4-4.4-17.6-4.4zm-37.8 50.2c0 14.5-12.1 24.9-33.3 24.9-8.7.1-17.3-1.9-25-5.8l.1-.3 4.7-10.8c6.3 3.5 13.4 5.4 20.6 5.6 11.8 0 17.3-5.5 17.3-12.3 0-7.2-4.6-11.1-16.6-15.2-16-5.3-23.6-13.5-23.6-23.4 0-13.3 12.3-24.8 31.5-24.8 7.4.1 14.7 2 21.2 5.7l-4.6 10.6c-5.4-3-11.5-4.5-17.7-4.5-9.6 0-14.9 5.1-14.9 11.3 0 6.8 5.3 9.9 16.9 14 15.5 5.5 23.4 12.7 23.4 25zm-82.2 12.6h-.6c-6.7 8.1-16.8 12.6-27.3 12.3-18 0-27.3-11.8-27.3-23.7 0-20 19.1-30.9 53.5-30.7V450c0-6.8-2-19.1-20.2-19.1-8.1 0-16.1 2.1-23.2 6.1l6.2-14.3c6.3-2 12.8-3 19.3-3 27.3 0 33.9 17.2 33.9 33.8v30.9c-.2 7.3.2 14.5 1.1 21.7h-15.1l-.3-12.2zm-1.1-31.8c-17.7-.3-37.7 2.6-37.7 18.6-.3 7.6 5.6 14.1 13.3 14.4.7 0 1.3 0 2-.1 9.4.4 18-5.1 21.5-13.8.6-1.5.9-3.1.9-4.8v-14.3zm-79.8-74.7h15.1v118.9h-15.1V387.4zm-40.2 12.4c-29.1 0-48.4 17.2-48.4 47.5 0 28.2 17.5 46.3 47.7 46.3 8.9.1 17.8-1.5 26.1-4.8l-6.5 15c-7.5 1.7-15.2 2.5-22.9 2.4-35 0-61.3-20.7-61.3-58.4 0-36 26.3-60.5 64.8-60.5 10.1-.4 20.1 1.3 29.4 5.1l-5 11.6c-7.6-2.8-15.7-4.3-23.9-4.2zm-104.6 57.1c0-10.8-3.6-17-13.8-17-6.3-.1-12 3.8-14.2 9.7-1.2 2.3-1.9 4.7-2.3 7.3v49.3h-27.2l.3-58.8c0-10.4 0-20.9-.3-28.2h24.1l1 13h.6c7-8.6 17.5-13.4 28.6-13 18.4 0 30.2 13.1 30.2 37.7v49.3h-27.2v-49.3h.2zm-114.7 49.3c-26.3 0-48.3-16.5-48.3-43.5s19.4-43.5 48.3-43.5c27.6 0 48.3 18.4 48.3 43.5 0 30.6-24.2 43.5-48.3 43.5zm0-69.5c-13.4 0-18.5 13.6-18.5 25.9 0 14.3 6.6 26.3 18.5 26.3 10.9 0 17.8-11.3 17.8-26.3-.1-12.6-5.1-26-17.8-25.9zm-72.4 20.2c-.2 1.9-.2 3.9 0 5.8v40.6h-27.2l.3-55c0-12.3.1-21.9-.3-29.1h24.1l.5 17h.7c3.7-10.2 13.4-17.1 24.3-17.2 2-.1 3.9 0 5.9.3l-10.4 23.9c-8.2.4-15.4 5.9-17.9 13.7zm-60.4-46.3v92.8h-27.2v-92.8H221l9.1-20.3h87.5l-6.1 20.3h-30.1zm-104.8 84.9c8.2 7.5 8.7 20.2 1.2 28.4l-1.2 1.2-5.1 4.8c-8.9 8.2-22.6 8.2-31.5 0l-34.2-32.2c-11.4-10.3-18.8-24.3-20.9-39.6-12.4 1.5-24.1 6.9-33.3 15.4l-34.2 32.2c-2.5 2.3-2.7 6.2-.4 8.7.1.1.2.3.4.4l5.1 4.8c2.7 2.5 6.9 2.5 9.7 0l34.2-32.2c2.7-2.5 5.7-4.9 8.8-7 2 4.5 4.4 8.9 7.2 13-1.8 1.3-3.5 2.7-5.1 4.2L43.1 530c-8.9 8.2-22.6 8.2-31.5 0l-5.1-4.8c-8.2-7.5-8.7-20.2-1.2-28.4l1.2-1.2 34.2-32.2c12.2-11.2 27.6-18.1 44.1-19.7 1.9-15.9 9.3-30.5 21-41.5L140 370c8.9-8.2 22.6-8.2 31.5 0l5.1 4.8c8.2 7.5 8.7 20.2 1.2 28.4l-1.2 1.2-34.2 32.2c-5.2 4.9-9.4 10.8-12.3 17.3 4.4 2.7 8.5 5.9 12.3 9.4l34.2 32.2zm-45.1-69.1l34.2-32.2c2.5-2.3 2.7-6.2.4-8.7-.1-.1-.2-.3-.4-.4l-5.1-4.8c-2.7-2.5-6.9-2.5-9.7 0l-34.2 32.2c-8.8 8.3-14.6 19.3-16.3 31.3 5.5.6 10.8 1.8 16 3.7 3.7-8 8.8-15.2 15.1-21.1zm-30.9 32c2 11.2 7.7 21.5 16.1 29.1l34.2 32.2c2.7 2.5 6.9 2.5 9.7 0l5.1-4.8c2.5-2.3 2.7-6.2.4-8.7-.1-.1-.2-.3-.4-.4l-34.2-32.2c-8.5-8.1-19.3-13.4-30.9-15.2z" fill="#333"/></svg>